<?xml version="1.0" encoding="UTF-8"?>
<!-- Created using Karbon, part of Calligra: http://www.calligra.org/karbon -->
<svg width="95.855pt" height="146.58pt" version="1.1" xmlns="http://www.w3.org/2000/svg">
 <g transform="matrix(.1709 0 0 .1709 5.586 8.1692)">
  <g transform="translate(-3.0202 -3.0497)" fill="#f6f7fc">
   <path transform="matrix(4.9492 0 0 4.8796 234.26 223.9)" d="m92.099 3.15-45.5 165.2c-0.297 1.081-1.2793 1.83-2.4 1.83h-41.71c-0.77759-4e-3 -1.5093-0.369-1.9796-0.988-0.47032-0.619-0.6257-1.422-0.42041-2.172l45.5-165.19c0.2971-1.0806 1.2794-1.8296 2.4-1.83h41.71c0.7768 2.9239e-4 1.5089 0.36308 1.9797 0.98095 0.4708 0.61788 0.6262 1.42 0.4203 2.169z"/>
   <path transform="matrix(4.9492 0 0 4.8796 3.0404 3.0497)" d="m91.776 3.77-45.23 164.23c-0.3622 1.292-1.5383 2.186-2.88 2.19h-40.67c-0.93441-1e-3 -1.8149-0.438-2.3815-1.181-0.56659-0.743-0.7546-1.708-0.50854-2.609l45.23-164.21c0.3613-1.2883 1.532-2.1817 2.87-2.19h40.69c0.9281 0.0060273 1.8011 0.44125 2.3645 1.1788 0.5634 0.73751 0.7537 1.6942 0.5155 2.5912z"/>
  </g>
 </g>
 <g transform="matrix(5.8824 0 0 5.8824 -156.18 -838.18)">
  <rect x="42" y="220" width="34" height="34" fill="none"/>
 </g>
</svg>
