<?xml version="1.0" encoding="UTF-8" standalone="no"?>
<svg
   width="450"
   height="450"
   version="1.1"
   viewBox="0 0 119.06 119.06"
   id="svg8"
   sodipodi:docname="logo.old.svg"
   inkscape:version="1.1 (c68e22c387, 2021-05-23)"
   xmlns:inkscape="http://www.inkscape.org/namespaces/inkscape"
   xmlns:sodipodi="http://sodipodi.sourceforge.net/DTD/sodipodi-0.dtd"
   xmlns="http://www.w3.org/2000/svg"
   xmlns:svg="http://www.w3.org/2000/svg"
   xmlns:rdf="http://www.w3.org/1999/02/22-rdf-syntax-ns#"
   xmlns:cc="http://creativecommons.org/ns#"
   xmlns:dc="http://purl.org/dc/elements/1.1/">
  <metadata
     id="metadata14">
    <rdf:RDF>
      <cc:Work
         rdf:about="">
        <dc:format>image/svg+xml</dc:format>
        <dc:type
           rdf:resource="http://purl.org/dc/dcmitype/StillImage" />
        <dc:title />
      </cc:Work>
    </rdf:RDF>
  </metadata>
  <defs
     id="defs12" />
  <sodipodi:namedview
     inkscape:document-rotation="0"
     pagecolor="#868686"
     bordercolor="#666666"
     borderopacity="1"
     objecttolerance="10"
     gridtolerance="10"
     guidetolerance="10"
     inkscape:pageopacity="0"
     inkscape:pageshadow="2"
     inkscape:window-width="954"
     inkscape:window-height="852"
     id="namedview10"
     showgrid="true"
     inkscape:snap-bbox="true"
     inkscape:bbox-nodes="true"
     inkscape:snap-bbox-edge-midpoints="true"
     inkscape:snap-nodes="false"
     showguides="true"
     inkscape:guide-bbox="true"
     inkscape:zoom="1.0182338"
     inkscape:cx="326.54583"
     inkscape:cy="309.35921"
     inkscape:window-x="70"
     inkscape:window-y="154"
     inkscape:window-maximized="0"
     inkscape:current-layer="svg8"
     inkscape:pagecheckerboard="0">
    <inkscape:grid
       type="xygrid"
       id="grid839" />
    <sodipodi:guide
       position="59.53,62.175778"
       orientation="1,0"
       id="guide841" />
  </sodipodi:namedview>
  <g
     id="g35"
     transform="matrix(0.26457778,0,0,0.26457778,42.799173,29.587945)">
    <g
       transform="matrix(0.1709,0,0,0.1709,5.586,8.1692)"
       id="g17">
      <g
         transform="translate(-3.0202,-3.0497)"
         fill="#f6f7fc"
         id="g15">
        <path
           transform="matrix(4.9492,0,0,4.8796,234.26,223.9)"
           d="m 92.099,3.15 -45.5,165.2 c -0.297,1.081 -1.2793,1.83 -2.4,1.83 H 2.489 C 1.71141,170.176 0.9797,169.811 0.5094,169.192 0.03908,168.573 -0.1163,167.77 0.08899,167.02 l 45.5,-165.19 c 0.2971,-1.0806 1.2794,-1.8296 2.4,-1.83 h 41.71 c 0.7768,2.9239e-4 1.5089,0.36308 1.9797,0.98095 0.4708,0.61788 0.6262,1.42 0.4203,2.169 z"
           id="path11" />
        <path
           transform="matrix(4.9492,0,0,4.8796,3.0404,3.0497)"
           d="M 91.776,3.77 46.546,168 c -0.3622,1.292 -1.5383,2.186 -2.88,2.19 H 2.996 C 2.06159,170.189 1.1811,169.752 0.6145,169.009 0.04791,168.266 -0.1401,167.301 0.10596,166.4 l 45.23,-164.21 c 0.3613,-1.2883 1.532,-2.1817 2.87,-2.19 h 40.69 c 0.9281,0.0060273 1.8011,0.44125 2.3645,1.1788 0.5634,0.73751 0.7537,1.6942 0.5155,2.5912 z"
           id="path13" />
      </g>
    </g>
    <g
       transform="matrix(5.8824,0,0,5.8824,-156.18,-838.18)"
       id="g21">
      <rect
         x="42"
         y="220"
         width="34"
         height="34"
         fill="none"
         id="rect19" />
    </g>
  </g>
</svg>
